#Comment line ignore any data following # character 
#Hierarchical Translation and Rotation (.htr) file 
[Header]	
#Header keywords are followed by a single value 
FileType HTR		#Single word string
DataType HTRS		#Translation followed by rotation and scale data
FileVersion 1		#integer
NumSegments 84		#integer
NumFrames 2		#integer
DataFrameRate 30		#integer, data frame rate in this file
EulerRotationOrder ZYX
CalibrationUnits mm
RotationUnits Degrees
GlobalAxisofGravity Y
BoneLengthAxis Y
ScaleFactor 1.00
[SegmentNames&Hierarchy]
#CHILD	PARENT
MASTER GLOBAL
root MASTER
chest root
L_mid_tent01 root
R_mid_tent01 root
spine01 root
Bip01_Neck chest
L_humerus chest
R_humerus chest
weapon_bone chest
Bip01_Head Bip01_Neck
eye_left_bone Bip01_Head
eye_right_bone Bip01_Head
L_forearm L_humerus
L_front_hand L_forearm
L_weapon_bone L_forearm
L_front_hand01_01 L_front_hand
L_front_hand02_01 L_front_hand
L_front_hand03_01 L_front_hand
L_front_hand01_02 L_front_hand01_01
L_front_hand02_02 L_front_hand02_01
L_front_hand03_02 L_front_hand03_01
R_forearm R_humerus
R_front_hand R_forearm
R_weapon_bone R_forearm
R_front_hand01_01 R_front_hand
R_front_hand02_01 R_front_hand
R_front_hand03_01 R_front_hand
R_front_hand01_02 R_front_hand01_01
R_front_hand02_02 R_front_hand02_01
R_front_hand03_02 R_front_hand03_01
null_rope01_connect L_mid_tent01
Rope1_Seg01 null_rope01_connect
Rope1_Seg02 Rope1_Seg01
Rope1_Seg03 Rope1_Seg02
Rope1_Seg04 Rope1_Seg03
Rope1_Seg05 Rope1_Seg04
Rope1_Seg06 Rope1_Seg05
Rope1_Seg07 Rope1_Seg06
Rope1_Seg09 Rope1_Seg07
L_mid_hand01 Rope1_Seg09
L_mid_hand02 Rope1_Seg09
L_mid_hand03 Rope1_Seg09
null_rope02_connect R_mid_tent01
Rope2_Seg01 null_rope02_connect
Rope2_Seg02 Rope2_Seg01
Rope2_Seg03 Rope2_Seg02
Rope2_Seg04 Rope2_Seg03
Rope2_Seg05 Rope2_Seg04
Rope2_Seg06 Rope2_Seg05
Rope2_Seg07 Rope2_Seg06
Rope2_Seg09 Rope2_Seg07
R_mid_hand01 Rope2_Seg09
R_mid_hand02 Rope2_Seg09
R_mid_hand03 Rope2_Seg09
spine02 spine01
spine03 spine02
pelvis spine03
null_rope03_connect pelvis
null_rope04_connect pelvis
Rope3_Seg01 null_rope03_connect
Rope3_Seg02 Rope3_Seg01
Rope3_Seg03 Rope3_Seg02
Rope3_Seg04 Rope3_Seg03
Rope3_Seg05 Rope3_Seg04
Rope3_Seg06 Rope3_Seg05
Rope3_Seg07 Rope3_Seg06
Rope3_Seg08 Rope3_Seg07
Rope3_Seg09 Rope3_Seg08
R_rear_hand01 Rope3_Seg09
R_rear_hand02 Rope3_Seg09
R_rear_hand03 Rope3_Seg09
Rope4_Seg01 null_rope04_connect
Rope4_Seg02 Rope4_Seg01
Rope4_Seg03 Rope4_Seg02
Rope4_Seg04 Rope4_Seg03
Rope4_Seg05 Rope4_Seg04
Rope4_Seg06 Rope4_Seg05
Rope4_Seg07 Rope4_Seg06
Rope4_Seg08 Rope4_Seg07
Rope4_Seg09 Rope4_Seg08
L_rear_hand01 Rope4_Seg09
L_rear_hand02 Rope4_Seg09
L_rear_hand03 Rope4_Seg09
[BasePosition]
#SegmentName Tx, Ty, Tz, Rx, Ry, Rz, BoneLength
MASTER 0.000000 0.000000 0.000000 -90.000000 0.000000 0.000000 10.000000 
root 0.000000 0.000000 0.000000 0.000000 0.000000 0.000000 10.000000 
chest 0.000000 0.000000 0.000000 0.000000 0.000000 0.000000 10.000000 
L_mid_tent01 0.000000 0.000000 0.000000 0.000000 0.000000 0.000000 10.000000 
R_mid_tent01 0.000000 0.000000 0.000000 0.000000 0.000000 0.000000 10.000000 
spine01 0.000000 0.000000 0.000000 0.000000 0.000000 0.000000 10.000000 
Bip01_Neck 0.000000 0.000000 0.000000 0.000000 0.000000 0.000000 10.000000 
L_humerus 0.000000 0.000000 0.000000 0.000000 0.000000 0.000000 10.000000 
R_humerus 0.000000 0.000000 0.000000 0.000000 0.000000 0.000000 10.000000 
weapon_bone 0.000000 0.000000 0.000000 0.000000 0.000000 0.000000 10.000000 
Bip01_Head 0.000000 0.000000 0.000000 0.000000 0.000000 0.000000 10.000000 
eye_left_bone 0.000000 0.000000 0.000000 0.000000 0.000000 0.000000 10.000000 
eye_right_bone 0.000000 0.000000 0.000000 0.000000 0.000000 0.000000 10.000000 
L_forearm 0.000000 0.000000 0.000000 0.000000 0.000000 0.000000 10.000000 
L_front_hand 0.000000 0.000000 0.000000 0.000000 0.000000 0.000000 10.000000 
L_weapon_bone 0.000000 0.000000 0.000000 0.000000 0.000000 0.000000 10.000000 
L_front_hand01_01 0.000000 0.000000 0.000000 0.000000 0.000000 0.000000 10.000000 
L_front_hand02_01 0.000000 0.000000 0.000000 0.000000 0.000000 0.000000 10.000000 
L_front_hand03_01 0.000000 0.000000 0.000000 0.000000 0.000000 0.000000 10.000000 
L_front_hand01_02 0.000000 0.000000 0.000000 0.000000 0.000000 0.000000 10.000000 
L_front_hand02_02 0.000000 0.000000 0.000000 0.000000 0.000000 0.000000 10.000000 
L_front_hand03_02 0.000000 0.000000 0.000000 0.000000 0.000000 0.000000 10.000000 
R_forearm 0.000000 0.000000 0.000000 0.000000 0.000000 0.000000 10.000000 
R_front_hand 0.000000 0.000000 0.000000 0.000000 0.000000 0.000000 10.000000 
R_weapon_bone 0.000000 0.000000 0.000000 0.000000 0.000000 0.000000 10.000000 
R_front_hand01_01 0.000000 0.000000 0.000000 0.000000 0.000000 0.000000 10.000000 
R_front_hand02_01 0.000000 0.000000 0.000000 0.000000 0.000000 0.000000 10.000000 
R_front_hand03_01 0.000000 0.000000 0.000000 0.000000 0.000000 0.000000 10.000000 
R_front_hand01_02 0.000000 0.000000 0.000000 0.000000 0.000000 0.000000 10.000000 
R_front_hand02_02 0.000000 0.000000 0.000000 0.000000 0.000000 0.000000 10.000000 
R_front_hand03_02 0.000000 0.000000 0.000000 0.000000 0.000000 0.000000 10.000000 
null_rope01_connect 0.000000 0.000000 0.000000 0.000000 0.000000 0.000000 10.000000 
Rope1_Seg01 0.000000 0.000000 0.000000 0.000000 0.000000 0.000000 10.000000 
Rope1_Seg02 0.000000 0.000000 0.000000 0.000000 0.000000 0.000000 10.000000 
Rope1_Seg03 0.000000 0.000000 0.000000 0.000000 0.000000 0.000000 10.000000 
Rope1_Seg04 0.000000 0.000000 0.000000 0.000000 0.000000 0.000000 10.000000 
Rope1_Seg05 0.000000 0.000000 0.000000 0.000000 0.000000 0.000000 10.000000 
Rope1_Seg06 0.000000 0.000000 0.000000 0.000000 0.000000 0.000000 10.000000 
Rope1_Seg07 0.000000 0.000000 0.000000 0.000000 0.000000 0.000000 10.000000 
Rope1_Seg09 0.000000 0.000000 0.000000 0.000000 0.000000 0.000000 10.000000 
L_mid_hand01 0.000000 0.000000 0.000000 0.000000 0.000000 0.000000 10.000000 
L_mid_hand02 0.000000 0.000000 0.000000 0.000000 0.000000 0.000000 10.000000 
L_mid_hand03 0.000000 0.000000 0.000000 0.000000 0.000000 0.000000 10.000000 
null_rope02_connect 0.000000 0.000000 0.000000 0.000000 0.000000 0.000000 10.000000 
Rope2_Seg01 0.000000 0.000000 0.000000 0.000000 0.000000 0.000000 10.000000 
Rope2_Seg02 0.000000 0.000000 0.000000 0.000000 0.000000 0.000000 10.000000 
Rope2_Seg03 0.000000 0.000000 0.000000 0.000000 0.000000 0.000000 10.000000 
Rope2_Seg04 0.000000 0.000000 0.000000 0.000000 0.000000 0.000000 10.000000 
Rope2_Seg05 0.000000 0.000000 0.000000 0.000000 0.000000 0.000000 10.000000 
Rope2_Seg06 0.000000 0.000000 0.000000 0.000000 0.000000 0.000000 10.000000 
Rope2_Seg07 0.000000 0.000000 0.000000 0.000000 0.000000 0.000000 10.000000 
Rope2_Seg09 0.000000 0.000000 0.000000 0.000000 0.000000 0.000000 10.000000 
R_mid_hand01 0.000000 0.000000 0.000000 0.000000 0.000000 0.000000 10.000000 
R_mid_hand02 0.000000 0.000000 0.000000 0.000000 0.000000 0.000000 10.000000 
R_mid_hand03 0.000000 0.000000 0.000000 0.000000 0.000000 0.000000 10.000000 
spine02 0.000000 0.000000 0.000000 0.000000 0.000000 0.000000 10.000000 
spine03 0.000000 0.000000 0.000000 0.000000 0.000000 0.000000 10.000000 
pelvis 0.000000 0.000000 0.000000 0.000000 0.000000 0.000000 10.000000 
null_rope03_connect 0.000000 0.000000 0.000000 0.000000 0.000000 0.000000 10.000000 
null_rope04_connect 0.000000 0.000000 0.000000 0.000000 0.000000 0.000000 10.000000 
Rope3_Seg01 0.000000 0.000000 0.000000 0.000000 0.000000 0.000000 10.000000 
Rope3_Seg02 0.000000 0.000000 0.000000 0.000000 0.000000 0.000000 10.000000 
Rope3_Seg03 0.000000 0.000000 0.000000 0.000000 0.000000 0.000000 10.000000 
Rope3_Seg04 0.000000 0.000000 0.000000 0.000000 0.000000 0.000000 10.000000 
Rope3_Seg05 0.000000 0.000000 0.000000 0.000000 0.000000 0.000000 10.000000 
Rope3_Seg06 0.000000 0.000000 0.000000 0.000000 0.000000 0.000000 10.000000 
Rope3_Seg07 0.000000 0.000000 0.000000 0.000000 0.000000 0.000000 10.000000 
Rope3_Seg08 0.000000 0.000000 0.000000 0.000000 0.000000 0.000000 10.000000 
Rope3_Seg09 0.000000 0.000000 0.000000 0.000000 0.000000 0.000000 10.000000 
R_rear_hand01 0.000000 0.000000 0.000000 0.000000 0.000000 0.000000 10.000000 
R_rear_hand02 0.000000 0.000000 0.000000 0.000000 0.000000 0.000000 10.000000 
R_rear_hand03 0.000000 0.000000 0.000000 0.000000 0.000000 0.000000 10.000000 
Rope4_Seg01 0.000000 0.000000 0.000000 0.000000 0.000000 0.000000 10.000000 
Rope4_Seg02 0.000000 0.000000 0.000000 0.000000 0.000000 0.000000 10.000000 
Rope4_Seg03 0.000000 0.000000 0.000000 0.000000 0.000000 0.000000 10.000000 
Rope4_Seg04 0.000000 0.000000 0.000000 0.000000 0.000000 0.000000 10.000000 
Rope4_Seg05 0.000000 0.000000 0.000000 0.000000 0.000000 0.000000 10.000000 
Rope4_Seg06 0.000000 0.000000 0.000000 0.000000 0.000000 0.000000 10.000000 
Rope4_Seg07 0.000000 0.000000 0.000000 0.000000 0.000000 0.000000 10.000000 
Rope4_Seg08 0.000000 0.000000 0.000000 0.000000 0.000000 0.000000 10.000000 
Rope4_Seg09 0.000000 0.000000 0.000000 0.000000 0.000000 0.000000 10.000000 
L_rear_hand01 0.000000 0.000000 0.000000 0.000000 0.000000 0.000000 10.000000 
L_rear_hand02 0.000000 0.000000 0.000000 0.000000 0.000000 0.000000 10.000000 
L_rear_hand03 0.000000 0.000000 0.000000 0.000000 0.000000 0.000000 10.000000 
#Beginning of Data. Separated by tabs
#Fr	Tx	Ty	Tz	Rx	Ry	Rz	SF
[MASTER]
17 0.000000 0.000000 0.000000 0.001660 0.001660 0.001660 0.000000
18 0.000000 0.000000 0.000000 0.001660 0.001660 0.001660 0.000000
[root]
17 -34.878048 -54.953152 1502.339233 -99.671204 -48.620754 -86.230301 1503.748413
18 -34.060730 -55.310081 1502.257080 -99.576988 -45.784592 -86.385872 1503.660767
[chest]
17 -84.512650 -34.090519 0.000000 -12.381639 -30.091206 170.583649 91.129311
18 -84.512650 -34.090519 0.000000 -13.131117 -28.934052 170.540756 91.129311
[L_mid_tent01]
17 27.299166 22.179106 -249.918716 2.277236 8.857551 79.139702 252.381699
18 27.299170 22.179106 -249.918716 2.651618 17.985460 79.740448 252.381699
[R_mid_tent01]
17 23.228794 24.509907 226.238495 165.834488 -13.279417 75.852524 228.744751
18 23.228794 24.509907 226.238495 165.083282 -24.629631 79.086067 228.744751
[spine01]
17 -0.361383 -0.195265 0.000000 0.002062 0.001122 32.879829 0.410763
18 -0.361383 -0.195265 0.000000 0.002062 0.001122 32.879829 0.410763
[Bip01_Neck]
17 165.484543 71.581718 0.000119 176.643677 -1.657967 43.431911 180.302734
18 165.484543 71.581718 0.000119 176.643677 -1.657967 43.431911 180.302734
[L_humerus]
17 -13.983130 -135.272980 -120.471481 170.266647 25.149994 -76.021675 181.680161
18 -13.983130 -135.272980 -120.471481 170.935303 33.271362 -79.780167 181.680161
[R_humerus]
17 -13.983309 -135.273102 125.287651 -172.846497 -9.548301 -96.400116 184.909012
18 -13.983309 -135.273102 125.287651 -171.513992 -12.777326 -99.347603 184.909012
[weapon_bone]
17 235.964890 -300.705902 0.000000 0.000000 -89.951546 -128.212341 382.234833
18 235.964890 -300.705902 0.000000 0.000000 -89.951546 -128.212341 382.234833
[Bip01_Head]
17 213.336533 186.015091 7.908401 32.993603 4.582980 -43.849358 283.154785
18 213.326797 186.042099 7.559204 33.220222 6.149210 -43.830616 283.155640
[eye_left_bone]
17 -24.626970 125.451866 -64.772606 0.000000 -90.000000 -99.840431 143.318359
18 -24.626970 125.451866 -64.772606 0.000000 -90.000000 -99.840431 143.318359
[eye_right_bone]
17 -24.626970 125.451866 64.327362 0.000000 -89.965736 80.156380 143.117676
18 -24.626970 125.451866 64.327362 0.000000 -89.965736 80.156380 143.117676
[L_forearm]
17 322.776093 0.000000 -0.000119 0.000396 -0.002314 -109.419975 322.776093
18 322.776093 0.000000 -0.000119 0.000396 -0.002314 -109.419975 322.776093
[L_front_hand]
17 241.149185 -0.042021 -3.300071 -178.667953 -1.835447 -27.422350 241.171753
18 241.149185 -0.042021 -3.300071 -178.667953 -1.835447 -27.422350 241.171753
[L_weapon_bone]
17 156.183838 0.000000 0.000000 0.000014 0.000007 0.000001 156.183838
18 156.183838 0.000000 0.000000 0.000014 0.000007 0.000001 156.183838
[L_front_hand01_01]
17 86.095154 20.947098 -0.655860 -0.282467 -0.528169 66.067474 88.609184
18 86.095154 20.947098 -0.655860 -0.289102 -0.524108 66.611076 88.609184
[L_front_hand02_01]
17 86.935165 -11.437475 24.513514 141.960785 -54.937954 -46.642345 91.046425
18 86.935165 -11.437475 24.513514 142.580521 -55.269005 -47.395390 91.046425
[L_front_hand03_01]
17 86.637497 -14.123976 -20.424902 -142.303543 53.163303 -48.671032 90.126129
18 86.637497 -14.123976 -20.424902 -142.879883 53.494282 -49.391994 90.126129
[L_front_hand01_02]
17 71.020905 -0.000179 0.000030 0.000315 -0.002326 -105.421257 71.020905
18 71.020905 -0.000179 0.000030 0.000315 -0.002326 -105.441971 71.020905
[L_front_hand02_02]
17 71.020927 -0.000119 0.000060 0.000315 -0.002326 -105.421257 71.020927
18 71.020927 -0.000119 0.000060 0.000315 -0.002326 -105.441971 71.020927
[L_front_hand03_02]
17 71.020905 -0.000060 0.000060 0.000315 -0.002326 -105.421257 71.020905
18 71.020905 -0.000060 0.000060 0.000315 -0.002326 -105.441971 71.020905
[R_forearm]
17 322.776428 -0.000060 0.000030 0.202103 0.065158 -108.062805 322.776428
18 322.776428 -0.000060 0.000030 0.202103 0.065158 -108.062805 322.776428
[R_front_hand]
17 238.847015 -0.006795 2.210259 -2.635298 -10.645461 -26.312506 238.857239
18 238.847015 -0.006795 2.210259 -2.635298 -10.645461 -26.312506 238.857239
[R_weapon_bone]
17 155.664093 0.002503 -0.000030 0.003487 0.001180 -90.988930 155.664078
18 155.664093 0.002503 -0.000030 0.003487 0.001180 -90.988930 155.664078
[R_front_hand01_01]
17 87.624611 14.231146 22.918642 -139.271561 -53.333107 43.426708 91.683487
18 87.624611 14.231146 22.918642 -140.217056 -53.925083 44.603291 91.683487
[R_front_hand02_01]
17 89.356956 14.367283 -19.491137 140.080994 51.767307 46.104946 92.579636
18 89.356956 14.367283 -19.491137 140.984955 52.347897 47.247559 92.579636
[R_front_hand03_01]
17 87.286232 -22.307278 -0.143439 0.071479 -0.448702 -63.787704 90.091743
18 87.286232 -22.307278 -0.143439 0.075044 -0.448119 -64.698715 90.091743
[R_front_hand01_02]
17 71.020905 0.000060 0.000119 0.002323 -0.000334 106.381714 71.020905
18 71.020905 0.000060 0.000119 0.002323 -0.000334 106.381714 71.020905
[R_front_hand02_02]
17 71.020844 -0.000030 -0.000119 0.002323 -0.000334 106.381714 71.020836
18 71.020844 -0.000030 -0.000119 0.002323 -0.000334 106.381714 71.020836
[R_front_hand03_02]
17 71.020905 0.000000 0.000030 0.002323 -0.000334 106.381714 71.020905
18 71.020905 0.000000 0.000030 0.002323 -0.000334 106.381714 71.020905
[null_rope01_connect]
17 328.732483 0.000000 -0.000238 -125.562675 -74.841972 -174.148727 328.732483
18 328.732483 0.000000 -0.000238 -125.747116 -65.597672 -176.831940 328.732483
[Rope1_Seg01]
17 -0.000014 -0.000027 0.000055 95.744423 2.432830 -147.112778 0.000063
18 -0.000012 -0.000024 0.000049 98.549210 -1.116264 -154.618958 0.000056
[Rope1_Seg02]
17 139.999863 -0.000179 0.000000 20.167116 -0.460249 -14.180997 139.999863
18 139.999863 -0.000179 0.000000 20.692692 -6.057456 -15.876204 139.999863
[Rope1_Seg03]
17 139.999924 0.000060 -0.000060 74.158813 -14.303606 -34.568039 139.999924
18 139.999924 0.000060 -0.000060 48.992477 -23.525188 -29.966028 139.999924
[Rope1_Seg04]
17 139.999924 -0.000060 -0.000119 25.933550 -36.710083 -5.770855 139.999924
18 139.999924 -0.000060 -0.000119 17.485218 -36.324799 -4.738272 139.999924
[Rope1_Seg05]
17 139.999832 0.000119 -0.000060 3.861552 -22.306976 3.911775 139.999832
18 139.999832 0.000119 -0.000060 0.773268 -26.357449 4.713753 139.999832
[Rope1_Seg06]
17 139.999954 0.000119 -0.000060 0.273827 -8.555884 2.595077 139.999954
18 139.999954 0.000119 -0.000060 -1.633833 -12.876420 2.625245 139.999954
[Rope1_Seg07]
17 139.999985 0.000060 0.000000 0.016344 -1.368401 0.426825 139.999985
18 139.999985 0.000060 0.000000 -0.865949 -4.494316 0.792941 139.999985
[Rope1_Seg09]
17 121.602913 0.000119 -0.000089 -89.793175 -1.359789 0.847147 121.602913
18 121.602913 0.000119 -0.000089 -89.793175 -1.359789 0.847147 121.602913
[L_mid_hand01]
17 103.859421 1.038730 8.195221 126.075401 -65.098549 -33.991913 104.187431
18 103.859421 1.038730 8.195221 129.242493 -66.931091 -37.458961 104.187431
[L_mid_hand02]
17 105.572853 -4.139662 -10.864139 -166.035263 42.723965 -69.273842 106.211075
18 105.572853 -4.139662 -10.864139 -168.131699 43.239815 -72.352119 106.211075
[L_mid_hand03]
17 104.641464 17.579376 -3.913581 -7.014418 17.452778 71.596474 106.179977
18 104.641464 17.579376 -3.913581 -6.285013 17.719217 74.000862 106.179977
[null_rope02_connect]
17 328.732849 0.000179 -0.000119 -48.612625 70.385025 67.978966 328.732849
18 328.732849 0.000179 -0.000119 -76.899696 63.985294 44.594765 328.732849
[Rope2_Seg01]
17 -0.000070 0.000098 0.000000 173.250137 42.400455 -56.555408 0.000120
18 -0.000079 0.000097 0.000000 -165.497589 45.821251 -47.262886 0.000125
[Rope2_Seg02]
17 139.999741 -0.000060 -0.000119 -5.762008 -4.640279 5.922182 139.999756
18 139.999741 -0.000060 -0.000119 -7.067337 -4.538127 6.970553 139.999756
[Rope2_Seg03]
17 140.000107 0.000030 0.000000 -4.451617 -13.198897 9.829317 140.000107
18 140.000107 0.000030 0.000000 -6.694033 -12.026838 11.908825 140.000107
[Rope2_Seg04]
17 139.999802 0.000000 -0.000060 -10.158646 -17.693825 23.941706 139.999802
18 139.999802 0.000000 -0.000060 -8.368446 -21.500402 21.805168 139.999802
[Rope2_Seg05]
17 139.999985 -0.000060 0.000119 -3.824986 9.404695 25.026489 139.999985
18 139.999985 -0.000060 0.000119 -2.012939 4.929634 27.092821 139.999985
[Rope2_Seg06]
17 139.999893 -0.000030 -0.000119 -1.472162 0.407468 9.920871 139.999893
18 139.999893 -0.000030 -0.000119 -0.054193 0.188036 14.486495 139.999893
[Rope2_Seg07]
17 139.999893 0.000060 -0.000060 -0.510598 0.062022 4.656604 139.999893
18 139.999893 0.000060 -0.000060 0.397842 -0.250198 6.889394 139.999893
[Rope2_Seg09]
17 121.338966 0.000089 -0.000060 33.793236 -1.359788 -0.847141 121.338966
18 121.338966 0.000089 -0.000060 33.793236 -1.359788 -0.847141 121.338966
[R_mid_hand01]
17 104.680779 11.144459 -10.335981 -28.450209 39.729855 52.441807 105.778534
18 104.680779 11.144459 -10.335981 -24.361835 42.075401 58.684284 105.778534
[R_mid_hand02]
17 104.070427 2.443552 8.231699 63.903580 -55.672924 22.558943 104.424065
18 104.070427 2.443552 8.231699 59.930573 -60.321301 27.236141 104.424065
[R_mid_hand03]
17 106.028137 -11.221827 -5.996406 -173.263687 14.341302 -61.789295 106.788818
18 106.028137 -11.221827 -5.996406 -174.631485 14.897616 -67.203407 106.788818
[spine02]
17 129.756927 0.001550 0.000119 0.360061 -4.044797 -12.915058 129.756927
18 129.756927 0.001550 0.000119 0.360061 -4.044797 -12.915058 129.756927
[spine03]
17 78.614067 0.081635 -4.899012 1.896495 3.831288 16.473045 78.766602
18 78.614067 0.081635 -4.899013 1.896495 3.831288 16.473045 78.766602
[pelvis]
17 169.435242 0.051022 0.000000 -0.060465 -0.180225 14.087930 169.435257
18 169.435242 0.051022 0.000000 -0.060465 -0.180225 14.087930 169.435257
[null_rope03_connect]
17 -1.257226 -2.466202 137.391083 -151.391068 -83.852539 -120.292023 137.418976
18 -1.257226 -2.466202 137.391083 -154.054489 -83.701820 -120.471970 137.418976
[null_rope04_connect]
17 -1.259640 -2.480268 -137.844437 -151.391068 -83.852539 -120.292023 137.872513
18 -1.259640 -2.480268 -137.844437 -154.054489 -83.701820 -120.471970 137.872513
[Rope3_Seg01]
17 0.000010 0.000038 -0.000114 -127.805000 -1.831868 -105.424965 0.000121
18 0.000010 0.000038 -0.000114 -127.346558 -3.474298 -104.108009 0.000121
[Rope3_Seg02]
17 139.999924 -0.000119 0.000060 0.448873 -8.663283 -10.935733 139.999924
18 139.999924 -0.000119 0.000060 1.803545 -12.086040 -17.781443 139.999924
[Rope3_Seg03]
17 139.999924 -0.000119 0.000119 0.785342 -1.741388 -10.988214 139.999924
18 139.999924 -0.000119 0.000119 -0.197492 -2.426750 -16.679237 139.999924
[Rope3_Seg04]
17 139.999924 0.000119 0.000000 0.612161 -9.677473 -4.334610 139.999924
18 139.999924 0.000119 0.000000 3.780411 -14.439733 -2.742053 139.999924
[Rope3_Seg05]
17 139.999924 -0.000238 0.000060 3.142577 -19.454954 2.997235 139.999924
18 139.999924 -0.000238 0.000060 8.777367 -20.783436 6.837718 139.999924
[Rope3_Seg06]
17 139.999893 -0.000119 -0.000060 3.209678 -10.401785 1.701732 139.999893
18 139.999893 -0.000119 -0.000060 5.102342 -9.010511 3.637488 139.999893
[Rope3_Seg07]
17 139.999771 0.000060 -0.000119 2.538940 -6.090620 1.095157 139.999771
18 139.999771 0.000060 -0.000119 3.512740 -5.214359 2.511641 139.999771
[Rope3_Seg08]
17 139.999985 -0.000060 0.000000 1.896191 -3.588692 0.813246 139.999985
18 139.999985 -0.000060 0.000000 2.363641 -2.961637 1.657706 139.999985
[Rope3_Seg09]
17 90.185997 -0.000179 -0.000060 89.793228 -1.359877 -0.847183 90.185997
18 90.185997 -0.000179 -0.000060 89.793228 -1.359877 -0.847183 90.185997
[R_rear_hand01]
17 103.366196 -6.073594 -10.757982 -171.885513 23.373785 -59.632885 104.101845
18 103.366196 -6.073594 -10.757982 -174.043228 23.976637 -65.002998 104.101845
[R_rear_hand02]
17 100.509819 12.039542 -7.992327 -21.647255 32.954239 56.905464 101.543350
18 100.509819 12.039542 -7.992327 -18.533085 34.659092 62.503902 101.543350
[R_rear_hand03]
17 101.539970 5.215704 5.435467 78.870155 -59.127991 13.449200 101.819031
18 101.539970 5.215704 5.435467 76.952385 -63.971771 15.629117 101.819031
[Rope4_Seg01]
17 0.000010 0.000014 -0.000055 49.862236 -5.386607 -124.085594 0.000057
18 0.000010 0.000012 -0.000049 52.593643 -11.103557 -128.202621 0.000051
[Rope4_Seg02]
17 139.999985 0.000060 0.000119 -0.414539 13.425761 2.980985 139.999985
18 139.999985 0.000060 0.000119 -2.906746 16.291683 -1.084163 139.999985
[Rope4_Seg03]
17 139.999924 0.000000 -0.000238 0.487403 11.534505 4.560662 139.999924
18 139.999924 0.000000 -0.000238 -0.190557 14.566216 1.812217 139.999924
[Rope4_Seg04]
17 139.999985 0.000000 0.000119 0.247492 8.136393 5.197380 139.999985
18 139.999985 0.000000 0.000119 0.468224 9.778063 2.667792 139.999985
[Rope4_Seg05]
17 139.999802 -0.000060 -0.000119 2.062757 8.770452 -5.041053 139.999802
18 139.999802 -0.000060 -0.000119 2.344872 11.436669 -7.684345 139.999802
[Rope4_Seg06]
17 139.999924 0.000000 0.000060 5.492178 11.511777 -14.646974 139.999924
18 139.999924 0.000000 0.000060 6.544569 16.081144 -18.795958 139.999924
[Rope4_Seg07]
17 139.999802 0.000000 0.000000 5.223671 8.363419 -10.882740 139.999802
18 139.999802 0.000000 0.000000 6.539804 10.005518 -13.363049 139.999802
[Rope4_Seg08]
17 139.999924 0.000000 0.000119 2.289686 4.706806 -7.196794 139.999924
18 139.999924 0.000000 0.000119 2.829446 4.706588 -8.103401 139.999924
[Rope4_Seg09]
17 90.185791 0.000060 0.000060 -135.617828 2.228885 0.850567 90.185791
18 90.185791 0.000060 0.000060 -135.617828 2.228885 0.850567 90.185791
[L_rear_hand01]
17 101.696655 -8.392275 -7.654577 -14.676040 -36.272415 110.857796 102.329041
18 101.696655 -8.392275 -7.654577 -13.354956 -36.717747 108.641342 102.329041
[L_rear_hand02]
17 102.726799 -1.568258 5.773216 73.610291 69.437737 160.740738 102.900848
18 102.726799 -1.568258 5.773216 72.111618 71.190071 159.144638 102.900848
[L_rear_hand03]
17 104.552910 9.721220 -10.420293 -176.571304 -24.441328 -108.830574 105.519653
18 104.552910 9.721220 -10.420293 -177.406540 -24.537506 -106.814919 105.519653
